# xmcd
#
# Track frame offsets: 
#        182
#        18695
#        30100
#        59365
#        76222
#        87145
#        96522
#        109635
#        134405
#        148340
#
# Disc length: 2510 seconds
#
# Revision: 7
# Processed by: cddbd v1.5.2PL0 Copyright (c) Steve Scherf et al.
# Submitted via: ExactAudioCopy v0.95b4
#
DISCID=8009cc0a
DTITLE=Stevie Wonder - Journey Through The Secret Life Of Plants (Disc
DTITLE=1)
DYEAR=1979
DGENRE=R&B
TTITLE0=Earth's Creation
TTITLE1=The First Garden
TTITLE2=Voyage To India
TTITLE3=Same Old Story
TTITLE4=Venus' Flytrap And The Bug
TTITLE5=Ai No, Sono
TTITLE6=Seasons
TTITLE7=Power Flower
TTITLE8=Send One Your Love (Instrumental)
TTITLE9=Race Babbling
EXTD=
EXTT0=
EXTT1=
EXTT2=
EXTT3=
EXTT4=
EXTT5=
EXTT6=
EXTT7=
EXTT8=
EXTT9=
PLAYORDER=
